<svg id="Layer_1" data-name="Layer 1" xmlns="http://www.w3.org/2000/svg" viewBox="0 0 421.108 102.168"><defs><style>.cls-1{fill:#231f20;}</style></defs><title>NEH_h-logo_03_all-black</title><path class="cls-1" d="M154.181,73.241c-1.038,0-4.677.145-5.5.145v-.964a3.255,3.255,0,0,0,2.528-2.973V58.29H133.563V69.449a3.325,3.325,0,0,0,2.6,2.973v.964c-.817,0-4.534-.145-5.57-.145-.9,0-4.386.145-5.206.145v-.964a3.26,3.26,0,0,0,2.527-2.973V46.16a3.309,3.309,0,0,0-2.527-2.973v-.964c.82,0,4.31.148,5.206.148,1.036,0,4.753-.148,5.57-.148v.964a3.348,3.348,0,0,0-2.6,2.973v9.154h17.645V46.16a3.176,3.176,0,0,0-2.528-2.973v-.964c.824,0,4.463.148,5.5.148.894,0,4.459-.148,5.278-.148v.964a3.353,3.353,0,0,0-2.6,2.973V69.449a3.392,3.392,0,0,0,2.6,2.973v.964c-.819,0-4.384-.145-5.278-.145" transform="translate(-4.968 -2.643)"/><path class="cls-1" d="M192.372,72.57c-1.192.816-2.75,2.079-2.75,2.079A10.06,10.06,0,0,1,186.2,68.93a15.391,15.391,0,0,1-10.851,4.976c-6.385,0-9.135-4.082-9.135-9.061V50.135c0-2.378-1.336-3.49-3.79-4.018V45.3l8.62-3.414h.813V60.679c0,5.279,1.118,9.442,6.4,9.442,3.343,0,6.24-2.232,7.727-4.09v-15.9c0-2.378-1.334-3.49-3.79-4.018V45.3l8.617-3.414h.819V66.852c0,2.373.745,2.972,1.63,2.972a4.267,4.267,0,0,0,1.714-.3l.521,1.186s-1.56.822-3.12,1.858" transform="translate(-4.968 -2.643)"/><path class="cls-1" d="M241.841,73.241c-.964,0-5.129.145-6.02.145V72.5c1.559-.671,3.27-1.489,3.27-2.9V55.11c0-5.273-.3-9.442-5.573-9.442a11.49,11.49,0,0,0-7.582,3.425,15.345,15.345,0,0,1,.075,1.856V69.6c0,1.479,1.563,2.152,3.343,2.9v.888c-.964,0-5.277-.145-6.241-.145s-5.128.145-6.019.145V72.5c1.559-.671,3.269-1.489,3.269-2.9V55.11c0-5.273-.3-9.442-5.576-9.442-3.34,0-5.94,2.234-7.425,4.089V69.6c0,1.479,1.557,2.152,3.342,2.9v.888c-.969,0-5.277-.145-6.24-.145s-5.131.145-6.02.145V72.5c1.559-.671,3.271-1.489,3.271-2.9V50.135c0-2.378-1.339-3.491-3.793-4.017V45.3l8.322-3.416h.814l.3,4.832c2.675-2.526,5.723-4.832,10.325-4.832,4.387,0,6.693,2,7.657,4.832a16.443,16.443,0,0,1,11.069-4.832c6.392,0,8.326,4.088,8.326,9.065V69.6c0,1.479,1.558,2.152,3.342,2.9v.888c-.967,0-5.276-.145-6.24-.145" transform="translate(-4.968 -2.643)"/><path class="cls-1" d="M275.954,72.57c-1.188.816-2.751,2.079-2.751,2.079a12.149,12.149,0,0,1-3.042-4.681,12.957,12.957,0,0,1-9.586,3.938c-5.652,0-9.662-2.675-9.662-8.691,0-5.647,5.349-8.545,10.774-9.512,1.487-.224,6.24-.3,7.872-.3V50.574c0-3.341-2.076-6.091-6.609-6.091-3.642,0-6.1,1.782-7.879,4.908h-.963V43.368a36.2,36.2,0,0,1,10.48-1.483c8.842,0,10.622,4.53,10.622,9.512V66.852c0,2.373.744,2.972,1.632,2.972a4.327,4.327,0,0,0,1.717-.3l.516,1.186s-1.562.822-3.121,1.858m-6.395-14.786H265.18c-4.388,0-8.25,2.378-8.25,7.133a5.033,5.033,0,0,0,5.125,5.42,9,9,0,0,0,7.5-4.158Z" transform="translate(-4.968 -2.643)"/><path class="cls-1" d="M307.839,73.241c-.967,0-5.132.145-6.02.145V72.5c1.56-.671,3.27-1.489,3.27-2.9V55.11c0-5.273-2.085-9.442-7.355-9.442-3.349,0-6.247,2.234-7.731,4.089V69.6c0,1.479,1.559,2.152,3.346,2.9v.888c-.967,0-5.277-.145-6.249-.145s-5.123.145-6.015.145V72.5c1.563-.671,3.273-1.489,3.273-2.9V50.135c0-2.378-1.338-3.491-3.789-4.017V45.3l8.319-3.416h.813l.3,4.832c2.678-2.526,6.014-4.832,10.625-4.832,6.389,0,10.1,4.088,10.1,9.065V69.6c0,1.479,1.566,2.152,3.349,2.9v.888c-.968,0-5.28-.145-6.241-.145" transform="translate(-4.968 -2.643)"/><path class="cls-1" d="M323.593,73.241c-.964,0-5.129.145-6.017.145V72.5c1.56-.671,3.267-1.489,3.267-2.9V50.135c0-2.378-1.336-3.491-3.79-4.017V45.3l8.622-3.416h.816V69.6c0,1.479,1.558,2.152,3.342,2.9v.888c-.964,0-5.273-.145-6.24-.145" transform="translate(-4.968 -2.643)"/><path class="cls-1" d="M344.327,73.906c-3.566,0-7.054-1.706-7.054-8.691V45.227h-4.608V43.445l4.01-1.194c2.152-1.926,3.2-4.9,3.787-8.39h2.45V42.4h9.142v2.824h-9.142V64.249c0,3.936,1.267,5.277,3.573,5.277a6.063,6.063,0,0,0,4.6-2.16l1.191,1.114c-.816,1.561-3.72,5.426-7.954,5.426" transform="translate(-4.968 -2.643)"/><path class="cls-1" d="M362.166,73.241c-.967,0-5.131.145-6.02.145V72.5c1.564-.671,3.273-1.489,3.273-2.9V50.135c0-2.378-1.338-3.491-3.792-4.017V45.3l8.615-3.416h.821V69.6c0,1.479,1.562,2.152,3.345,2.9v.888c-.967,0-5.281-.145-6.242-.145" transform="translate(-4.968 -2.643)"/><path class="cls-1" d="M399.1,55.406H378c-.967,8.541,3.79,14.931,10.846,14.931,4.017,0,6.762-.666,8.622-2.6l1.263,1.412a13.66,13.66,0,0,1-10.842,4.753c-10.484,0-16.053-6.387-16.053-16.05,0-9.807,6.758-15.971,14.859-15.971,7.873,0,13,5.573,12.63,11.961a4.925,4.925,0,0,1-.224,1.56m-12.334-10.85c-4.905,0-7.8,4.535-8.467,8.323H393.3c.519-3.71-1.856-8.323-6.54-8.323" transform="translate(-4.968 -2.643)"/><path class="cls-1" d="M414.191,73.906a36.652,36.652,0,0,1-9.366-1.484V65.883h.967c2.079,3.72,4.454,5.348,8.32,5.348,4.237,0,6.543-1.56,6.543-4.309a3.872,3.872,0,0,0-2.454-3.714l-9.214-4.528c-2.973-1.491-4.833-3.793-4.833-7.433,0-6.1,5.5-9.362,11.372-9.362a36.9,36.9,0,0,1,9.359,1.484v6.316h-.964a9.306,9.306,0,0,0-8.247-5.129c-3.641,0-5.944,1.939-5.944,4.686,0,2.381.895,3.564,3.342,4.752l9.362,4.537a6.771,6.771,0,0,1,3.642,6.242c0,5.866-4.6,9.133-11.885,9.133" transform="translate(-4.968 -2.643)"/><path class="cls-1" d="M127.341,24.056h2.392l3.395,5.551h.023V24.056h1.76v7.988h-2.3l-3.486-5.686H129.1v5.686h-1.76Z" transform="translate(-4.968 -2.643)"/><path class="cls-1" d="M139.505,24.056h1.456l3.474,7.988H142.45l-.688-1.693h-3.1l-.665,1.693h-1.941Zm.677,2.324-.97,2.482h1.952Z" transform="translate(-4.968 -2.643)"/><path class="cls-1" d="M146.1,25.613h-2.279V24.056h6.318v1.557h-2.279v6.431H146.1Z" transform="translate(-4.968 -2.643)"/><path class="cls-1" d="M151.343,24.056H153.1v7.988h-1.759Z" transform="translate(-4.968 -2.643)"/><path class="cls-1" d="M158.925,23.853a4.045,4.045,0,0,1,4.31,4.2,4.312,4.312,0,0,1-8.62,0A4.045,4.045,0,0,1,158.925,23.853Zm0,6.769a2.411,2.411,0,0,0,2.482-2.572,2.484,2.484,0,1,0-4.964,0A2.411,2.411,0,0,0,158.925,30.622Z" transform="translate(-4.968 -2.643)"/><path class="cls-1" d="M164.771,24.056h2.392l3.4,5.551h.023V24.056h1.759v7.988h-2.3l-3.486-5.686h-.023v5.686h-1.76Z" transform="translate(-4.968 -2.643)"/><path class="cls-1" d="M176.934,24.056h1.456l3.475,7.988H179.88l-.689-1.693h-3.1l-.665,1.693h-1.941Zm.677,2.324-.969,2.482h1.951Z" transform="translate(-4.968 -2.643)"/><path class="cls-1" d="M183.074,24.056h1.76V30.42H188.1v1.624h-5.021Z" transform="translate(-4.968 -2.643)"/><path class="cls-1" d="M192.238,24.056h5.427v1.625H194V27.17h3.464V28.8H194V30.42h3.87v1.624h-5.63Z" transform="translate(-4.968 -2.643)"/><path class="cls-1" d="M199.618,24.056h2.392l3.4,5.551h.023V24.056h1.76v7.988h-2.3L201.4,26.358h-.023v5.686h-1.76Z" transform="translate(-4.968 -2.643)"/><path class="cls-1" d="M209.154,24.056h2.64c2.572,0,4.727,1.095,4.727,4.016,0,2.584-2.109,3.972-4.49,3.972h-2.877Zm1.76,6.364h.914c1.635,0,2.866-.621,2.866-2.438,0-1.568-1.253-2.3-2.742-2.3h-1.038Z" transform="translate(-4.968 -2.643)"/><path class="cls-1" d="M221.939,23.853a4.045,4.045,0,0,1,4.309,4.2,4.312,4.312,0,0,1-8.62,0A4.046,4.046,0,0,1,221.939,23.853Zm0,6.769a2.411,2.411,0,0,0,2.482-2.572,2.485,2.485,0,1,0-4.966,0A2.412,2.412,0,0,0,221.939,30.622Z" transform="translate(-4.968 -2.643)"/><path class="cls-1" d="M226.949,24.056h1.918l1.275,5.122h.022l1.67-5.122h1.636l1.658,5.258h.024l1.342-5.258h1.782l-2.335,7.988h-1.567l-1.76-5.528h-.023l-1.76,5.528h-1.512Z" transform="translate(-4.968 -2.643)"/><path class="cls-1" d="M239.4,24.056h2.663l1.838,5.212h.022l1.85-5.212h2.652v7.988h-1.76V25.918h-.022l-2.1,6.126H243.2l-2.018-6.126h-.023v6.126H239.4Z" transform="translate(-4.968 -2.643)"/><path class="cls-1" d="M250.454,24.056h5.427v1.625h-3.667V27.17h3.464V28.8h-3.464V30.42h3.871v1.624h-5.631Z" transform="translate(-4.968 -2.643)"/><path class="cls-1" d="M257.835,24.056h2.391l3.4,5.551h.021V24.056h1.762v7.988h-2.3l-3.485-5.686H259.6v5.686h-1.76Z" transform="translate(-4.968 -2.643)"/><path class="cls-1" d="M268.915,25.613h-2.279V24.056h6.317v1.557h-2.278v6.431h-1.76Z" transform="translate(-4.968 -2.643)"/><path class="cls-1" d="M277.041,24.056H282.4v1.625h-3.6v1.624h3.329V28.93H278.8v3.114h-1.76Z" transform="translate(-4.968 -2.643)"/><path class="cls-1" d="M287.885,23.853a4.045,4.045,0,0,1,4.309,4.2,4.312,4.312,0,0,1-8.62,0A4.046,4.046,0,0,1,287.885,23.853Zm0,6.769a2.411,2.411,0,0,0,2.482-2.572,2.485,2.485,0,1,0-4.966,0A2.412,2.412,0,0,0,287.885,30.622Z" transform="translate(-4.968 -2.643)"/><path class="cls-1" d="M293.73,24.056h3.091c1.636,0,3.013.564,3.013,2.426a2.056,2.056,0,0,1-1.727,2.188l2.031,3.374h-2.11l-1.669-3.193h-.869v3.193h-1.76Zm1.76,3.306h1.038c.643,0,1.479-.023,1.479-.891,0-.8-.722-.926-1.365-.926H295.49Z" transform="translate(-4.968 -2.643)"/><path class="cls-1" d="M305.7,25.613h-2.279V24.056h6.317v1.557h-2.278v6.431H305.7Z" transform="translate(-4.968 -2.643)"/><path class="cls-1" d="M310.974,24.056h1.76v2.979h3.418V24.056h1.76v7.988h-1.76V28.591h-3.418v3.453h-1.76Z" transform="translate(-4.968 -2.643)"/><path class="cls-1" d="M319.945,24.056h5.426v1.625h-3.666V27.17h3.464V28.8h-3.464V30.42h3.87v1.624h-5.63Z" transform="translate(-4.968 -2.643)"/><path class="cls-1" d="M61.511,53.73a5.459,5.459,0,1,1-5.465-5.46,5.453,5.453,0,0,1,5.465,5.46" transform="translate(-4.968 -2.643)"/><path class="cls-1" d="M52.743,5.861c-.157-2.724.915-3.224,3.32-3.218,2.388.005,3.465.5,3.3,3.227L57.082,39.181c-.093.75-.423,2.394-1.083,2.394s-.99-1.657-1.08-2.394Z" transform="translate(-4.968 -2.643)"/><path class="cls-1" d="M87.559,17.542c1.817-2.04,2.925-1.633,4.623.069s2.1,2.806.049,4.614L67.067,44.172c-.6.463-1.995,1.394-2.459.926s.471-1.875.929-2.458Z" transform="translate(-4.968 -2.643)"/><path class="cls-1" d="M103.919,50.418c2.725-.155,3.222.914,3.218,3.32,0,2.386-.5,3.465-3.227,3.3L70.6,54.757c-.747-.093-2.395-.421-2.395-1.082s1.661-.99,2.4-1.08Z" transform="translate(-4.968 -2.643)"/><path class="cls-1" d="M92.238,85.232c2.038,1.816,1.632,2.924-.071,4.622s-2.805,2.1-4.615.052L65.61,64.738c-.463-.594-1.4-1.99-.928-2.457s1.875.473,2.458.931Z" transform="translate(-4.968 -2.643)"/><path class="cls-1" d="M59.362,101.591c.156,2.727-.915,3.224-3.319,3.22s-3.465-.5-3.3-3.227l2.28-33.313c.092-.747.42-2.395,1.08-2.395s.99,1.661,1.08,2.4Z" transform="translate(-4.968 -2.643)"/><path class="cls-1" d="M24.547,89.913c-1.818,2.036-2.926,1.632-4.622-.069s-2.1-2.809-.05-4.615L45.041,63.282c.592-.462,1.991-1.393,2.457-.926s-.475,1.872-.931,2.458Z" transform="translate(-4.968 -2.643)"/><path class="cls-1" d="M8.187,57.035c-2.726.158-3.224-.914-3.219-3.315s.5-3.47,3.227-3.3L41.507,52.7c.747.089,2.394.421,2.394,1.08s-1.661.99-2.394,1.079Z" transform="translate(-4.968 -2.643)"/><path class="cls-1" d="M19.867,22.22c-2.038-1.813-1.634-2.924.069-4.619s2.808-2.1,4.615-.052L46.494,42.717c.464.591,1.4,1.991.929,2.454s-1.873-.473-2.457-.928Z" transform="translate(-4.968 -2.643)"/><path class="cls-1" d="M62.056,38.394c-.318,1.027-.418,2.129-.739,3.142-.3.953-.489,1.243-1.426.946-1.5-.48.209-5.838.462-6.626C62.541,29.01,72.224,22.3,74.143,16.3a6.482,6.482,0,0,0-4.136-8.255c-3.069-.984-4.359.866-5.454.512a.632.632,0,0,1-.345-.81c.472-1.494,3.761-3.653,9.758-1.743A9.386,9.386,0,0,1,80.118,17.7c-2.64,8.268-14.62,9.9-18.062,20.7" transform="translate(-4.968 -2.643)"/><path class="cls-1" d="M71.141,47.131c-.955.5-1.8,1.21-2.747,1.7-.884.462-1.223.536-1.674-.338C66,47.091,71,44.509,71.729,44.136c6.391-3.3,17.982-1.2,23.581-4.079A6.48,6.48,0,0,0,98.22,31.3C96.745,28.433,94.527,28.823,94,27.8a.634.634,0,0,1,.331-.82c1.39-.723,5.243.076,8.134,5.673a9.381,9.381,0,0,1-3.92,12.611c-7.712,3.981-17.339-3.333-27.4,1.864" transform="translate(-4.968 -2.643)"/><path class="cls-1" d="M71.385,59.733c-1.03-.321-2.126-.419-3.143-.744-.953-.3-1.241-.483-.943-1.421.48-1.5,5.836.211,6.621.461C80.768,60.216,87.483,69.9,93.478,71.82a6.485,6.485,0,0,0,8.254-4.138c.983-3.067-.866-4.359-.516-5.452a.641.641,0,0,1,.815-.347c1.491.473,3.654,3.761,1.74,9.761a9.379,9.379,0,0,1-11.69,6.145c-8.27-2.638-9.9-14.614-20.7-18.056" transform="translate(-4.968 -2.643)"/><path class="cls-1" d="M62.648,68.812c-.5-.952-1.207-1.8-1.7-2.745-.464-.883-.535-1.221.338-1.671,1.4-.722,3.978,4.271,4.357,5.008,3.292,6.39,1.2,17.986,4.076,23.578a6.48,6.48,0,0,0,8.763,2.911c2.861-1.472,2.468-3.692,3.493-4.222A.641.641,0,0,1,82.8,92c.723,1.392-.075,5.244-5.672,8.136a9.389,9.389,0,0,1-12.615-3.92c-3.976-7.712,3.333-17.339-1.861-27.407" transform="translate(-4.968 -2.643)"/><path class="cls-1" d="M50.046,69.064c.319-1.033.421-2.132.744-3.148.3-.953.485-1.24,1.42-.943,1.5.48-.206,5.837-.458,6.622-2.193,6.852-11.873,13.563-13.794,19.556A6.481,6.481,0,0,0,42.1,99.405c3.067.984,4.357-.86,5.455-.518a.647.647,0,0,1,.347.819c-.473,1.492-3.765,3.655-9.761,1.737a9.381,9.381,0,0,1-6.15-11.686c2.64-8.269,14.616-9.905,18.059-20.693" transform="translate(-4.968 -2.643)"/><path class="cls-1" d="M40.961,60.323c.954-.5,1.8-1.209,2.75-1.694.885-.469,1.221-.538,1.669.334.725,1.4-4.27,3.98-5,4.359-6.393,3.293-17.981,1.2-23.583,4.076a6.481,6.481,0,0,0-2.909,8.761c1.474,2.862,3.69,2.469,4.222,3.491a.642.642,0,0,1-.333.822c-1.387.719-5.246-.076-8.131-5.673a9.386,9.386,0,0,1,3.917-12.614c7.713-3.979,17.338,3.333,27.4-1.862" transform="translate(-4.968 -2.643)"/><path class="cls-1" d="M40.718,47.722c1.029.32,2.129.423,3.143.743.953.3,1.243.486.943,1.42-.48,1.5-5.836-.206-6.622-.455-6.848-2.2-13.561-11.874-19.557-13.8a6.484,6.484,0,0,0-8.254,4.137c-.982,3.067.864,4.359.517,5.457a.639.639,0,0,1-.813.344c-1.493-.474-3.656-3.767-1.74-9.759a9.386,9.386,0,0,1,11.687-6.153c8.27,2.644,9.9,14.618,20.7,18.061" transform="translate(-4.968 -2.643)"/><path class="cls-1" d="M49.455,38.638c.5.955,1.206,1.8,1.7,2.75.462.881.536,1.221-.337,1.671-1.4.723-3.982-4.275-4.357-5.011-3.3-6.39-1.2-17.979-4.078-23.579a6.479,6.479,0,0,0-8.763-2.908c-2.863,1.472-2.471,3.691-3.49,4.223a.639.639,0,0,1-.818-.333c-.723-1.391.076-5.245,5.669-8.132a9.384,9.384,0,0,1,12.613,3.914c3.98,7.716-3.331,17.341,1.863,27.4" transform="translate(-4.968 -2.643)"/></svg>